<?xml version="1.0" encoding="utf-8"?>
<!-- Generator: Adobe Illustrator 19.2.1, SVG Export Plug-In . SVG Version: 6.00 Build 0)  -->
<svg version="1.1" id="sli-arrow" xmlns="http://www.w3.org/2000/svg" xmlns:xlink="http://www.w3.org/1999/xlink" x="0px" y="0px"
	 viewBox="0 0 6 12" style="enable-background:new 0 0 6 12;" xml:space="preserve">
<style type="text/css">
	.sli-arrow{fill:#656363;}
</style>
<path class="sli-arrow" d="M5.6,4.9c-1-1.1-3.1-3.5-4.2-4.6C1.1,0,0.6-0.1,0.3,0.2c0,0-0.1,0.1-0.1,0.1C0,0.5-0.1,1,0.2,1.3
	C1,2.2,2.5,4.2,3.4,5.1c0.4,0.5,0.4,1.2,0,1.7c-0.8,1-2.5,2.8-3.3,3.8c-0.2,0.3-0.2,0.7,0.1,1l0.1,0.1c0.3,0.3,0.8,0.2,1.1-0.1
	c1.1-1.2,3.2-3.5,4.2-4.6C6.2,6.4,6.1,5.5,5.6,4.9z"/>
</svg>
